HIERARCHY
ROOT SpineBase
{
  OFFSET 0.000000 0.000000 0.000000
  CHANNELS 6 Xposition Yposition Zposition Zrotation Xrotation Yrotation
  JOINT SpineMid
  {
    OFFSET 0.000000 30.518066 0.000000
    CHANNELS 3 Zrotation Xrotation Yrotation
    JOINT SpineShoulder
    {
      OFFSET 0.620295 22.712375 -1.646178
      CHANNELS 3 Zrotation Xrotation Yrotation
      JOINT Neck
      {
        OFFSET 0.088756 7.566815 -0.873741
        CHANNELS 3 Zrotation Xrotation Yrotation
        JOINT Head
        {
          OFFSET -4.153213 9.617454 6.649211
          CHANNELS 3 Zrotation Xrotation Yrotation
          End Site
          {
            OFFSET 0 0 0
          }
        }
      }
      JOINT ShoulderLeft
      {
        OFFSET -15.211232 -7.955580 4.814578
        CHANNELS 3 Zrotation Xrotation Yrotation
        JOINT ElbowLeft
        {
          OFFSET 3.114755 -25.955626 5.565704
          CHANNELS 3 Zrotation Xrotation Yrotation
          JOINT WristLeft
          {
            OFFSET 15.337370 -13.806588 3.901210
            CHANNELS 3 Zrotation Xrotation Yrotation
            JOINT HandLeft
            {
              OFFSET -0.136716 -4.587006 4.787049
              CHANNELS 3 Zrotation Xrotation Yrotation
              JOINT HandTipLeft
              {
                OFFSET 0.083358 -1.482077 -0.201173
                CHANNELS 3 Zrotation Xrotation Yrotation
                End Site
                {
                  OFFSET 0 0 0
                }
              }
              JOINT ThumbLeft
              {
                OFFSET -0.097557 -1.035332 -1.424251
                CHANNELS 3 Zrotation Xrotation Yrotation
                End Site
                {
                  OFFSET 0 0 0
                }
              }
            }
          }
        }
      }
      JOINT ShoulderRight
      {
        OFFSET 7.232623 -3.534652 -12.527203
        CHANNELS 3 Zrotation Xrotation Yrotation
        JOINT ElbowRight
        {
          OFFSET 10.243250 -27.170326 0.648758
          CHANNELS 3 Zrotation Xrotation Yrotation
          JOINT WristRight
          {
            OFFSET 6.100257 -20.880162 2.285761
            CHANNELS 3 Zrotation Xrotation Yrotation
            JOINT HandRight
            {
              OFFSET 0.983468 -4.904449 -0.707295
              CHANNELS 3 Zrotation Xrotation Yrotation
              JOINT HandTipRight
              {
                OFFSET -0.792967 -6.481657 -0.684066
                CHANNELS 3 Zrotation Xrotation Yrotation
                End Site
                {
                  OFFSET 0 0 0
                }
              }
              JOINT ThumbRight
              {
                OFFSET -0.962363 -1.188530 -1.866847
                CHANNELS 3 Zrotation Xrotation Yrotation
                End Site
                {
                  OFFSET 0 0 0
                }
              }
            }
          }
        }
      }
    }
  }
  JOINT HipLeft
  {
    OFFSET -5.493410 0.345389 -0.994723
    CHANNELS 3 Zrotation Xrotation Yrotation
    JOINT KneeLeft
    {
      OFFSET 11.136974 -23.274755 -9.964549
      CHANNELS 3 Zrotation Xrotation Yrotation
      JOINT AnkleLeft
      {
        OFFSET -2.733008 -30.473711 -2.060334
        CHANNELS 3 Zrotation Xrotation Yrotation
        JOINT FootLeft
        {
          OFFSET -4.295404 -4.934016 -1.159661
          CHANNELS 3 Zrotation Xrotation Yrotation
          End Site
          {
            OFFSET 0 0 0
          }
        }
      }
    }
  }
  JOINT HipRight
  {
    OFFSET 5.085635 2.378162 -5.377712
    CHANNELS 3 Zrotation Xrotation Yrotation
    JOINT KneeRight
    {
      OFFSET -9.575561 -28.240492 10.290561
      CHANNELS 3 Zrotation Xrotation Yrotation
      JOINT AnkleRight
      {
        OFFSET -1.258252 -29.576580 -1.169932
        CHANNELS 3 Zrotation Xrotation Yrotation
        JOINT FootRight
        {
          OFFSET -6.109539 -2.731899 -10.603041
          CHANNELS 3 Zrotation Xrotation Yrotation
          End Site
          {
            OFFSET 0 0 0
          }
        }
      }
    }
  }
}
MOTION
Frames: 5
Frame Time: 0.033333
31.193577 62.048957 342.394715 -0.000000 0.000000 22.504644 -0.000000 0.000000 -22.504644 -0.000000 0.000000 0.000000 -0.000000 0.000000 0.000000 0.000000 0.000000 0.000000 -0.000000 0.000000 0.000000 -0.000000 0.000000 0.000000 -0.000000 0.000000 0.000000 -0.000000 0.000000 0.000000 0.000000 0.000000 0.000000 0.000000 0.000000 0.000000 -0.000000 0.000000 0.000000 -0.000000 0.000000 0.000000 -0.000000 0.000000 0.000000 -0.000000 0.000000 0.000000 0.000000 0.000000 0.000000 0.000000 0.000000 0.000000 -0.000000 0.000000 -22.504644 -0.000000 0.000000 0.000000 -0.000000 0.000000 0.000000 0.000000 0.000000 0.000000 -0.000000 0.000000 -22.504644 -0.000000 0.000000 0.000000 -0.000000 0.000000 0.000000 0.000000 0.000000 0.000000
32.046535 61.977260 341.902650 1.165998 0.435899 23.855483 -0.139954 0.288504 -23.813366 0.289600 0.082968 0.082917 -8.390166 -5.979283 2.259184 0.000000 0.000000 0.000000 -1.212528 -0.723554 -0.139067 -0.000000 0.000000 0.000000 -0.000000 0.000000 0.000000 -0.000000 0.000000 0.000000 0.000000 0.000000 0.000000 0.000000 0.000000 0.000000 -0.601710 1.051740 0.542450 -0.627846 -1.769369 -0.692962 0.268864 -5.837247 -1.204846 2.844930 4.058093 0.846185 0.000000 0.000000 0.000000 0.000000 0.000000 0.000000 -3.215258 0.044087 -23.480148 1.797863 0.812322 -0.389710 -4.872687 20.247368 -14.560516 0.000000 0.000000 0.000000 -2.086037 0.209374 -24.084139 0.432232 -0.846868 0.284401 0.398744 1.064514 -0.064751 0.000000 0.000000 0.000000
32.788437 61.873401 341.506247 2.150908 0.772937 25.043285 -0.183660 0.550802 -24.973100 0.492195 0.151756 0.151358 -15.691155 -11.425308 3.534545 0.000000 0.000000 0.000000 -1.916075 -2.099984 -0.279090 -0.336685 0.761305 0.021439 -0.000000 0.000000 0.000000 -0.000000 0.000000 0.000000 0.000000 0.000000 0.000000 0.000000 0.000000 0.000000 -1.141969 1.989792 1.002663 -1.166799 -3.306522 -1.312526 0.046967 -10.259178 -2.091982 5.759095 7.068410 0.974619 0.000000 0.000000 0.000000 0.000000 0.000000 0.000000 -5.913681 0.273793 -24.310901 2.407732 0.892930 -0.637577 -4.333700 32.354872 -22.934516 0.000000 0.000000 0.000000 -3.915226 0.507220 -25.483436 0.934156 -1.463605 0.535842 0.691490 1.894737 -0.119354 0.000000 0.000000 0.000000
33.419281 61.737380 341.205505 2.955963 1.011961 26.066307 -0.138778 0.780181 -25.976680 0.611215 0.207601 0.204523 -21.635351 -15.904044 4.034597 0.000000 0.000000 0.000000 -2.736226 -3.135158 -0.443249 -0.384014 1.290063 0.077013 -0.000000 0.000000 0.000000 -0.000000 0.000000 0.000000 0.000000 0.000000 0.000000 0.000000 0.000000 0.000000 -1.623995 2.791839 1.380440 -1.601833 -4.595745 -1.843855 -0.531315 -13.950060 -2.852020 8.665164 9.674641 0.650535 0.000000 0.000000 0.000000 0.000000 0.000000 0.000000 -8.089491 0.636882 -24.986285 3.323644 1.157546 -0.937836 -3.295992 38.743988 -27.906815 0.000000 0.000000 0.000000 -5.489134 0.861044 -26.694769 1.499276 -1.857123 0.757814 0.880495 2.498885 -0.160273 0.000000 0.000000 0.000000
33.939069 61.569198 341.000425 3.582974 1.154154 26.925141 -0.012518 0.972155 -26.820404 0.649925 0.251590 0.241936 -26.096214 -19.234296 4.048309 0.000000 0.000000 0.000000 -3.491597 -4.151539 -0.627801 -0.326658 1.907181 0.164925 -0.000000 0.000000 0.000000 -0.000000 0.000000 0.000000 0.000000 0.000000 0.000000 0.000000 0.000000 0.000000 -2.051017 3.439110 1.675778 -2.105741 -6.446813 -2.552073 -1.205196 -16.479169 -3.304009 11.551999 12.257480 -0.014225 0.000000 0.000000 0.000000 0.000000 0.000000 0.000000 -9.743001 1.089614 -25.505963 4.047558 1.304005 -1.218883 -2.259954 42.277779 -30.929750 0.000000 0.000000 0.000000 -6.811824 1.242696 -27.716221 2.123491 -2.031003 0.952298 0.966415 2.881528 -0.185030 0.000000 0.000000 0.000000
